<svg width="136" height="15" viewBox="0 0 136 15" fill="none" xmlns="http://www.w3.org/2000/svg">
<path d="M6.03019 1.40844C6.32049 0.771586 6.95593 0.362903 7.65582 0.362903V0.362903C8.3581 0.362903 8.99524 0.774341 9.28417 1.41443L14.3755 12.6933C14.7869 13.6048 14.1203 14.6371 13.1203 14.6371V14.6371C12.5687 14.6371 12.0703 14.308 11.8537 13.8006L11.5136 13.004C11.0908 12.0136 10.1178 11.371 9.04083 11.371H6.09828C5.02844 11.371 4.06399 12.0155 3.65479 13.004L3.32127 13.8097C3.11395 14.3105 2.62531 14.6371 2.08328 14.6371V14.6371C1.10818 14.6371 0.459654 13.6287 0.864105 12.7415L6.03019 1.40844ZM7.57093 9.19355C8.68179 9.19355 9.44266 8.07328 9.03314 7.04066V7.04066C8.50978 5.72097 6.64402 5.71512 6.11239 7.0315V7.0315C5.69482 8.06544 6.45586 9.19355 7.57093 9.19355V9.19355Z" fill="#647B64"/>
<path d="M15.5106 2.14631C15.239 1.25965 15.9021 0.362903 16.8295 0.362903V0.362903C17.4499 0.362903 17.994 0.777136 18.1591 1.3752L20.7682 10.826C20.7715 10.8383 20.7827 10.8468 20.7954 10.8468V10.8468C20.8077 10.8468 20.8187 10.8388 20.8224 10.827L23.7012 1.66911C23.9455 0.891746 24.6661 0.362903 25.481 0.362903V0.362903C26.2997 0.362903 27.0227 0.896599 27.2639 1.67892L30.0843 10.8268C30.0879 10.8387 30.0989 10.8468 30.1113 10.8468V10.8468C30.1239 10.8468 30.135 10.8384 30.1385 10.8262L32.8145 1.34066C32.9776 0.762321 33.5053 0.362903 34.1062 0.362903V0.362903C35.0086 0.362903 35.6539 1.23548 35.3895 2.09824L31.9294 13.3925C31.7028 14.1321 31.0199 14.6371 30.2464 14.6371V14.6371C29.4854 14.6371 28.8105 14.148 28.5736 13.4248L25.4704 3.95153C25.4665 3.93955 25.4553 3.93145 25.4427 3.93145V3.93145C25.4301 3.93145 25.4189 3.93955 25.415 3.95153L22.3118 13.4248C22.0749 14.148 21.4001 14.6371 20.639 14.6371V14.6371C19.8655 14.6371 19.1826 14.1321 18.956 13.3925L15.5106 2.14631Z" fill="#647B64"/>
<path d="M37.6938 3.3629C37.6938 1.70605 39.0369 0.362903 40.6938 0.362903H46.493C47.1054 0.362903 47.6018 0.859362 47.6018 1.47177V1.47177C47.6018 2.08419 47.1054 2.58064 46.493 2.58064H42.1702C41.168 2.58064 40.3556 3.39303 40.3556 4.39516V4.39516C40.3556 5.39729 41.168 6.20968 42.1702 6.20968H46.153C46.7432 6.20968 47.2216 6.68808 47.2216 7.27823V7.27823C47.2216 7.86837 46.7432 8.34677 46.153 8.34677H42.3718C41.2583 8.34677 40.3556 9.24943 40.3556 10.3629V10.3629C40.3556 11.4764 41.2583 12.379 42.3718 12.379H46.8531C47.4766 12.379 47.9821 12.8845 47.9821 13.5081V13.5081C47.9821 14.1316 47.4766 14.6371 46.8531 14.6371H40.6938C39.0369 14.6371 37.6938 13.2939 37.6938 11.6371V3.3629Z" fill="#647B64"/>
<path d="M59.1207 2.3976C58.6404 2.9006 57.8037 2.86346 57.179 2.55794C57.1242 2.53116 57.068 2.50513 57.0103 2.47984C56.5033 2.2379 55.9892 2.11693 55.4681 2.11693C55.1583 2.11693 54.8484 2.15726 54.5386 2.2379C54.2287 2.30511 53.947 2.41935 53.6935 2.58064C53.44 2.72849 53.2288 2.93011 53.0598 3.18548C52.9048 3.42742 52.8274 3.72312 52.8274 4.07258C52.8274 4.39516 52.8978 4.6707 53.0386 4.89919C53.1795 5.12769 53.3696 5.32258 53.609 5.48387C53.8625 5.64516 54.1653 5.78629 54.5174 5.90726C54.8695 6.02822 55.2569 6.14919 55.6794 6.27016C56.1582 6.41801 56.6512 6.58602 57.1582 6.77419C57.6793 6.96236 58.1511 7.21102 58.5736 7.52016C59.0102 7.8293 59.3623 8.21908 59.6299 8.68951C59.9116 9.15994 60.0524 9.74462 60.0524 10.4435C60.0524 11.2097 59.9046 11.8817 59.6088 12.4597C59.313 13.0242 58.9187 13.4946 58.4257 13.871C57.9328 14.2473 57.3554 14.5296 56.6934 14.7177C56.0315 14.9059 55.3343 15 54.602 15C53.6302 15 52.6795 14.832 51.75 14.496C51.2402 14.3043 50.7813 14.0642 50.3732 13.7756C49.8229 13.3863 49.8749 12.6016 50.3782 12.1532V12.1532C50.9125 11.6774 51.741 11.7775 52.3466 12.1584C52.4975 12.2533 52.6577 12.3403 52.8274 12.4194C53.4471 12.7016 54.0527 12.8427 54.6442 12.8427C54.9541 12.8427 55.2709 12.8091 55.5949 12.7419C55.9188 12.6613 56.2075 12.5336 56.461 12.3589C56.7286 12.1841 56.9399 11.9691 57.0948 11.7137C57.2638 11.4449 57.3483 11.1156 57.3483 10.7258C57.3483 10.3495 57.2568 10.0403 57.0737 9.79839C56.8906 9.54301 56.6441 9.32796 56.3343 9.15322C56.0244 8.96505 55.6582 8.80376 55.2357 8.66935C54.8132 8.53495 54.3696 8.39382 53.9048 8.24597C53.4541 8.11156 53.0034 7.95027 52.5527 7.7621C52.102 7.57392 51.6936 7.32527 51.3274 7.01613C50.9753 6.70699 50.6866 6.33064 50.4613 5.8871C50.2359 5.43011 50.1233 4.86559 50.1233 4.19355C50.1233 3.46774 50.2782 2.84274 50.588 2.31855C50.912 1.79435 51.3274 1.36425 51.8345 1.02823C52.3556 0.678763 52.94 0.423386 53.5879 0.262096C54.2499 0.0873653 54.9188 0 55.5949 0C56.3554 0 57.123 0.127688 57.8976 0.383064C58.2801 0.506926 58.6378 0.660826 58.9707 0.844763C59.5424 1.16073 59.5718 1.9251 59.1207 2.3976V2.3976Z" fill="#647B64"/>
<path d="M62.0006 7.45968C62.0006 6.3172 62.1978 5.28898 62.5922 4.375C63.0006 3.44758 63.5569 2.66129 64.2611 2.01613C64.9794 1.37097 65.8244 0.873655 66.7962 0.524193C67.7821 0.174731 68.8525 0 70.0074 0C71.1763 0 72.2538 0.174731 73.2397 0.524193C74.2255 0.873655 75.0776 1.37097 75.7959 2.01613C76.5142 2.66129 77.0705 3.44758 77.4648 4.375C77.8733 5.28898 78.0775 6.3172 78.0775 7.45968C78.0775 8.57527 77.8733 9.59677 77.4648 10.5242C77.0705 11.4382 76.5142 12.2312 75.7959 12.9032C75.0776 13.5618 74.2255 14.0793 73.2397 14.4556C72.2538 14.8185 71.1763 15 70.0074 15C68.8525 15 67.7821 14.8185 66.7962 14.4556C65.8244 14.0793 64.9794 13.5618 64.2611 12.9032C63.5569 12.2312 63.0006 11.4382 62.5922 10.5242C62.1978 9.59677 62.0006 8.57527 62.0006 7.45968ZM64.8949 7.45968C64.8949 8.22581 65.0146 8.93145 65.254 9.57661C65.5076 10.2083 65.8597 10.7594 66.3103 11.2298C66.7751 11.7003 67.3173 12.0699 67.937 12.3387C68.5708 12.5941 69.268 12.7218 70.0285 12.7218C70.789 12.7218 71.4862 12.5941 72.12 12.3387C72.7538 12.0699 73.296 11.7003 73.7467 11.2298C74.2114 10.7594 74.5635 10.2083 74.803 9.57661C75.0565 8.93145 75.1832 8.22581 75.1832 7.45968C75.1832 6.72043 75.0565 6.03495 74.803 5.40322C74.5635 4.7715 74.2185 4.22043 73.7678 3.75C73.3171 3.27957 72.7749 2.90995 72.1411 2.64113C71.5073 2.37231 70.8031 2.2379 70.0285 2.2379C69.2539 2.2379 68.5497 2.37231 67.9159 2.64113C67.2962 2.90995 66.761 3.27957 66.3103 3.75C65.8597 4.22043 65.5076 4.7715 65.254 5.40322C65.0146 6.03495 64.8949 6.72043 64.8949 7.45968Z" fill="#647B64"/>
<path d="M80.6471 2.82896C80.6471 1.46699 81.7512 0.362903 83.1131 0.362903V0.362903C84.1346 0.362903 85.0503 0.992574 85.4158 1.94632L88.6848 10.4745C88.6916 10.4923 88.7086 10.504 88.7277 10.504V10.504C88.7468 10.504 88.7639 10.4922 88.7707 10.4743L91.9988 1.96024C92.3633 0.99877 93.2844 0.362903 94.3127 0.362903V0.362903C95.6794 0.362903 96.7873 1.47084 96.7873 2.83754V13.3167C96.7873 14.0459 96.1962 14.6371 95.4669 14.6371V14.6371C94.7377 14.6371 94.1466 14.0459 94.1466 13.3167V3.19047C94.1466 3.17658 94.1353 3.16532 94.1214 3.16532V3.16532C94.1111 3.16532 94.1018 3.17162 94.098 3.18121L89.9035 13.7751C89.6975 14.2954 89.1947 14.6371 88.6351 14.6371V14.6371C88.0731 14.6371 87.5686 14.2925 87.3642 13.769L83.2307 3.1813C83.2269 3.17166 83.2176 3.16532 83.2073 3.16532V3.16532C83.1934 3.16532 83.1822 3.17656 83.1822 3.19043V13.3695C83.1822 14.0696 82.6147 14.6371 81.9146 14.6371V14.6371C81.2146 14.6371 80.6471 14.0696 80.6471 13.3695V2.82896Z" fill="#647B64"/>
<path d="M100.081 3.3629C100.081 1.70605 101.424 0.362903 103.081 0.362903H108.88C109.493 0.362903 109.989 0.859362 109.989 1.47177V1.47177C109.989 2.08419 109.493 2.58064 108.88 2.58064H104.558C103.556 2.58064 102.743 3.39303 102.743 4.39516V4.39516C102.743 5.39729 103.556 6.20968 104.558 6.20968H108.541C109.131 6.20968 109.609 6.68808 109.609 7.27823V7.27823C109.609 7.86837 109.131 8.34677 108.541 8.34677H104.759C103.646 8.34677 102.743 9.24943 102.743 10.3629V10.3629C102.743 11.4764 103.646 12.379 104.759 12.379H109.241C109.864 12.379 110.37 12.8845 110.37 13.5081V13.5081C110.37 14.1316 109.864 14.6371 109.241 14.6371H103.081C101.424 14.6371 100.081 13.2939 100.081 11.6371V3.3629Z" fill="#647B64"/>
<path d="M130.172 9.39516C130.172 10.2554 130.017 11.0349 129.707 11.7339C129.397 12.4194 128.975 13.004 128.44 13.4879C127.905 13.9718 127.271 14.3481 126.538 14.6169C125.806 14.8723 125.01 15 124.151 15C123.292 15 122.496 14.8723 121.764 14.6169C121.032 14.3481 120.391 13.9718 119.841 13.4879C119.306 13.004 118.884 12.4194 118.574 11.7339C118.278 11.0349 118.13 10.2554 118.13 9.39516V1.69384C118.13 0.958782 118.726 0.362903 119.461 0.362903V0.362903C120.196 0.362903 120.792 0.958782 120.792 1.69384V9.29435C120.792 9.71102 120.848 10.1277 120.961 10.5444C121.074 10.9476 121.257 11.3105 121.51 11.6331C121.778 11.9556 122.123 12.2177 122.546 12.4194C122.982 12.621 123.517 12.7218 124.151 12.7218C124.785 12.7218 125.313 12.621 125.736 12.4194C126.172 12.2177 126.517 11.9556 126.771 11.6331C127.038 11.3105 127.229 10.9476 127.341 10.5444C127.454 10.1277 127.51 9.71102 127.51 9.29435V1.69384C127.51 0.958783 128.106 0.362903 128.841 0.362903V0.362903C129.576 0.362903 130.172 0.958784 130.172 1.69384V9.39516Z" fill="#647B64"/>
<path d="M133.338 1.69384C133.338 0.958783 133.934 0.362903 134.669 0.362903V0.362903C135.404 0.362903 136 0.958784 136 1.69384V13.3062C136 14.0412 135.404 14.6371 134.669 14.6371V14.6371C133.934 14.6371 133.338 14.0412 133.338 13.3062V1.69384Z" fill="#647B64"/>
</svg>
