<svg width="54" height="60" viewBox="0 0 54 60" fill="none" xmlns="http://www.w3.org/2000/svg">
<g filter="url(#filter0_d)">
<path d="M47.0267 11.12L29.6934 0.933359C28.0134 -0.0533073 25.9599 -0.0533073 24.2799 0.933359L6.94661 11.12C5.31995 12.08 4.30664 13.84 4.30664 15.7067V36.2667C4.30664 38.16 5.31995 39.8934 6.94661 40.8534L24.2799 51.04C25.9599 52.0267 28.0134 52.0267 29.6934 51.04L47.0267 40.8534C48.6534 39.8934 49.6667 38.1334 49.6667 36.2667V15.7067C49.6667 13.84 48.6534 12.08 47.0267 11.12ZM41.3734 35.7067L28.04 43.7067C27.72 43.8933 27.3733 44 27 44C26.6267 44 26.28 43.8933 25.96 43.7067L12.6266 35.7067C11.6666 35.1467 11.3733 33.92 11.9333 32.96C12.4933 32 13.72 31.7067 14.68 32.2667L26.9733 39.6533L36.4134 33.9734L31.4533 30.9867L29.7201 32.72C29.3201 33.12 28.8133 33.3067 28.3066 33.3067C27.8 33.3067 27.2934 33.12 26.8934 32.72C26.1201 31.9467 26.1201 30.6667 26.8934 29.8934L27.9067 28.88L23.1066 26L21.7201 27.3867C21.3201 27.7867 20.8133 27.9734 20.3066 27.9734C19.8 27.9734 19.2934 27.7867 18.8934 27.3867C18.1201 26.6134 18.1201 25.3334 18.8934 24.56L19.5866 23.8667L12.6266 19.68C12.0133 19.3067 11.6667 18.6667 11.6667 17.9734C11.6667 17.28 12.04 16.6134 12.6266 16.2667L25.96 8.26669C26.6 7.89336 27.4 7.89336 28.0133 8.26669L41.3467 16.2667C42.3067 16.8267 42.6 18.0534 42.04 19.0134C41.48 19.9467 40.2533 20.2667 39.2933 19.7067L27 12.32L17.5601 18L22.52 20.9867L24.2533 19.2533C25.0266 18.48 26.3067 18.48 27.0801 19.2533C27.8534 20.0267 27.8534 21.3067 27.0801 22.08L26.0667 23.0934L30.8667 25.9734L32.2533 24.5867C33.0266 23.8133 34.3067 23.8133 35.0801 24.5867C35.8534 25.36 35.8534 26.64 35.0801 27.4133L34.3867 28.1067L41.3467 32.2933C41.96 32.6667 42.3066 33.3067 42.3066 34C42.3066 34.6933 41.96 35.36 41.3734 35.7067Z" fill="white"/>
</g>
<defs>
<filter id="filter0_d" x="0.306641" y="0.193359" width="53.36" height="59.5867" filterUnits="userSpaceOnUse" color-interpolation-filters="sRGB">
<feFlood flood-opacity="0" result="BackgroundImageFix"/>
<feColorMatrix in="SourceAlpha" type="matrix" values="0 0 0 0 0 0 0 0 0 0 0 0 0 0 0 0 0 0 127 0" result="hardAlpha"/>
<feOffset dy="4"/>
<feGaussianBlur stdDeviation="2"/>
<feComposite in2="hardAlpha" operator="out"/>
<feColorMatrix type="matrix" values="0 0 0 0 0 0 0 0 0 0 0 0 0 0 0 0 0 0 0.25 0"/>
<feBlend mode="normal" in2="BackgroundImageFix" result="effect1_dropShadow"/>
<feBlend mode="normal" in="SourceGraphic" in2="effect1_dropShadow" result="shape"/>
</filter>
</defs>
</svg>
